<?xml version="1.0" encoding="UTF-8" standalone="no"?>
<!-- Created with Inkscape (http://www.inkscape.org/) -->

<svg
   width="300mm"
   height="300mm"
   viewBox="0 0 300 300"
   version="1.1"
   id="svg1"
   xmlns="http://www.w3.org/2000/svg"
   xmlns:svg="http://www.w3.org/2000/svg">
  <defs
     id="defs1">
    <clipPath
       clipPathUnits="userSpaceOnUse"
       id="clipPath29">
      <ellipse
         style="display:none;fill:#ff0000;fill-rule:evenodd;stroke-width:0.239465"
         id="ellipse29"
         cx="220.78627"
         cy="58.117527"
         rx="8.6315584"
         ry="8.7203407"
         transform="rotate(-39.324789)" />
    </clipPath>
  </defs>
  <g
     id="layer1"
     style="display:inline">
    <path
       style="display:none;fill:#006fff;fill-opacity:1;fill-rule:evenodd;stroke-width:0.37082"
       id="path34"
       d="m 180.2079,-104.59815 a 39.045864,32.568794 0 0 1 53.20691,-12.32067 39.045864,32.568794 0 0 1 14.77098,44.380743 39.045864,32.568794 0 0 1 -53.20688,12.320763 39.045864,32.568794 0 0 1 -14.7711,-44.380716"
       transform="rotate(37.883166)" />
    <path
       id="path35"
       style="display:none;fill:#ff0000;fill-rule:evenodd;stroke-width:0.111285"
       d="m 220.62246,60.745093 a 4.2413921,4.216951 64.902504 0 0 -3.09025,1.629357 l -5.1e-4,-5.16e-4 -14.74329,18.949747 0.007,0.0057 -32.42592,41.680649 6.67711,5.19452 32.42593,-41.681171 0.004,0.0031 14.74277,-18.949231 -5.1e-4,-5.17e-4 a 4.2413921,4.216951 64.902504 0 0 0.007,-0.0083 4.2413921,4.216951 64.902504 0 0 -0.78186,-5.943824 4.2413921,4.216951 64.902504 0 0 -2.82102,-0.879532 z" />
    <path
       id="path155"
       style="display:inline;fill:#006aeb;fill-opacity:1;fill-rule:evenodd;stroke:#000000;stroke-width:1.05833;stroke-dasharray:none;stroke-opacity:1"
       d="M 143.83256,42.004154 A 109.03747,108.16921 0 0 0 55.084493,96.759985 l -5.17e-4,5.17e-4 a 109.03747,108.16921 0 0 0 41.249162,147.399788 109.03747,108.16921 0 0 0 25.561232,10.15494 l 24.35768,-31.3123 A 72.05687,73.356552 0 0 1 114.53461,213.8562 72.05687,73.356552 0 0 1 87.275293,113.89486 v -5.2e-4 a 72.05687,73.356552 0 0 1 58.648617,-37.133651 72.05687,73.356552 0 0 1 9.70483,0.146245 l 23.93808,-30.772799 a 109.03747,108.16921 0 0 0 -35.73426,-4.129981 z m 40.96701,5.738152 -23.35258,30.02194 a 72.05687,73.356552 0 0 1 24.01869,8.37985 72.05687,73.356552 0 0 1 33.65066,43.200984 L 244.72201,96.431323 A 109.03747,108.16921 0 0 0 203.66715,55.840002 109.03747,108.16921 0 0 0 184.79957,47.742306 Z m 14.29009,155.645284 a 72.05687,73.356552 0 0 1 -46.47624,19.77295 l -25.29044,32.51223 a 109.03747,108.16921 0 0 0 97.12585,-26.88984 z" />
    <path
       id="path20-6"
       style="color:#000000;display:inline;fill:#00aab0;fill-opacity:1;stroke:#000000;stroke-width:1;stroke-dasharray:none;stroke-opacity:1"
       d="m 218.05852,24.155116 a 38.765388,32.334843 37.88317 0 0 -9.79475,1.60972 38.765388,32.334843 37.88317 0 0 -13.73043,9.482109 l -0.005,-0.0041 -9.61491,12.359452 a 108.82508,108.82508 0 0 0 -0.001,-5.17e-4 l -0.2098,0.269751 -0.68161,0.875916 -22.57382,29.016833 c 11.98317,1.998792 23.29269,6.930448 32.92667,14.370699 l 19.91972,-25.605672 a 109.03758,109.03758 0 0 1 0.001,5.17e-4 l 4.83175,-6.21099 a 3.9010266,3.8306354 83.337435 0 1 2.40037,-1.025261 l 0.001,-5.17e-4 a 3.9010266,3.8306354 83.337435 0 1 2.5554,0.82734 3.9010266,3.8306354 83.337435 0 1 0.92863,4.95577 l -3.04685,3.91604 a 108.82508,108.82508 0 0 0 -0.14779,-0.146244 3.9010266,3.8306354 83.337435 0 1 -0.13694,0.509529 L 88.791476,240.17242 a 108.82508,108.82508 0 0 0 5.17e-4,5.2e-4 l -4.437455,5.70404 a 3.9010266,3.8306354 83.337435 0 1 -2.400371,1.02526 l -0.001,5.2e-4 a 3.9010266,3.8306354 83.337435 0 1 -2.5554,-0.82734 3.9010266,3.8306354 83.337435 0 1 -0.928625,-4.95577 l 4.293794,-5.51904 a 108.33995,108.33995 0 0 1 -0.08682,-0.077 l 0.182935,-0.23513 A 109.03758,109.03758 0 0 1 61.301681,212.56584 108.33995,108.33995 0 0 1 59.02275,209.42287 l -8.648567,11.11664 a 38.765388,32.334843 37.88317 0 0 -4.360974,37.10833 38.765388,32.334843 37.88317 0 0 49.203715,22.7831 38.765388,32.334843 37.88317 0 0 13.730426,-9.4821 l 0.005,0.004 12.67778,-16.29616 a 109.03758,109.03758 0 0 1 -5.2e-4,0 l 122.82816,-157.883905 5.2e-4,-5.17e-4 8.64805,-11.116117 a 38.765388,32.334843 37.88317 0 0 4.36098,-37.108329 38.765388,32.334843 37.88317 0 0 -39.40897,-24.392826 z" />
  </g>
</svg>
