<svg width="460" height="460" viewBox="0 0 460 460" fill="none" xmlns="http://www.w3.org/2000/svg"><path fill-rule="evenodd" clip-rule="evenodd" d="M263.252 336.736a112.198 112.198 0 0 0 56.75-39.498l-13.403-10.179a95.368 95.368 0 0 1-150.306 2.037l-15.166 7.915a112.196 112.196 0 0 0 122.125 39.725Zm-136.18-64.227a112.194 112.194 0 0 1 13.593-110.15 112.2 112.2 0 0 1 180.183.285l-15.137 7.9a95.363 95.363 0 0 0-103.628-32.158 95.376 95.376 0 0 0-66.794 89.684 95.362 95.362 0 0 0 6.332 35.5l-14.549 8.939Z" fill="#006AEB"/><path fill-rule="evenodd" clip-rule="evenodd" d="M378.84 154.938c2.494 4.934 2.508 11.948-1.595 21.471-4.082 9.475-11.858 20.443-23.09 32.188-19.618 20.514-48.911 42.497-84.35 62.038l3.112 6.506c77.209-42.488 126.755-96.954 112.349-125.451-14.723-29.123-90.884-20.542-172.908 18.565l4.021 6.06c38.432-18.224 75.28-29.526 104.615-33.314 16.117-2.081 29.56-1.84 39.611.491 10.101 2.343 15.741 6.512 18.235 11.446Zm-188.095 34.465-3.111-6.505c-77.812 42.571-127.876 97.403-113.404 126.03 14.785 29.247 91.536 20.468 173.96-19.068l-4.02-6.059c-38.811 18.519-76.065 29.994-105.669 33.816-16.116 2.081-29.559 1.84-39.61-.491-10.101-2.343-15.741-6.512-18.235-11.446-2.494-4.934-2.508-11.948 1.595-21.471 4.082-9.476 11.858-20.444 23.09-32.188 19.812-20.717 49.491-42.932 85.404-62.618Z" fill="#006AEB"/><path d="m195.456 168.658 23.921 50.018a12 12 0 0 1-4.543 15.401l-103.476 63.58 107.667-56.19a12 12 0 0 1 15.551 4.004l30.656 46.197-23.921-50.018a12 12 0 0 1 4.544-15.401l103.475-63.58-107.667 56.19a12.001 12.001 0 0 1-15.551-4.004l-30.656-46.197Z" fill="#00AAB0"/></svg>