<svg width="128" height="128" viewBox="0 0 128 128" fill="none" xmlns="http://www.w3.org/2000/svg"><path d="M75.117 99.632a37.465 37.465 0 0 0 18.95-13.19l-4.475-3.398a31.845 31.845 0 0 1-50.19.68l-5.064 2.643a37.464 37.464 0 0 0 40.78 13.264ZM29.645 78.185A37.464 37.464 0 0 1 94.349 41.5l-5.054 2.638A31.845 31.845 0 0 0 34.503 75.2l-4.858 2.985Z" fill="#006AEB"/><path fill-rule="evenodd" clip-rule="evenodd" d="m77.064 77.122-.413.228 1.47 3.075.465-.255c12.924-7.112 23.554-15.238 30.359-22.8 3.402-3.78 5.866-7.44 7.173-10.781 1.307-3.34 1.477-6.42.187-8.972-1.318-2.608-3.985-4.315-7.566-5.23-3.582-.915-8.144-1.056-13.375-.486-10.466 1.14-23.726 5.143-37.456 11.689l-.52.248 1.9 2.864.392-.185c12.798-6.07 25.051-9.824 34.782-11.08 5.35-.691 9.773-.605 13.05.155 3.296.764 5.015 2.096 5.755 3.56.74 1.464.793 3.639-.545 6.746-1.331 3.09-3.885 6.703-7.612 10.6-6.508 6.805-16.245 14.116-28.046 20.624Z" fill="#006AEB"/><path d="m51.147 50.873.415-.227-1.471-3.075-.463.253c-13.026 7.126-23.75 15.29-30.62 22.891-3.434 3.8-5.925 7.48-7.248 10.839-1.324 3.358-1.502 6.454-.206 9.018 1.324 2.619 4.008 4.329 7.612 5.24 3.607.913 8.199 1.045 13.464.46 10.535-1.17 23.877-5.224 37.674-11.842l.518-.249-1.9-2.863-.392.187c-12.925 6.167-25.313 9.979-35.133 11.246-5.349.691-9.772.605-13.049-.155-3.296-.764-5.016-2.096-5.756-3.56-.74-1.464-.793-3.639.546-6.746 1.33-3.09 3.884-6.703 7.612-10.6 6.572-6.872 16.438-14.261 28.397-20.816Z" fill="#006AEB"/><path d="m52.48 43.508 7.987 16.702a4.006 4.006 0 0 1-1.517 5.142l-34.552 21.23L60.349 67.82a4.007 4.007 0 0 1 5.193 1.337l10.236 15.426-7.987-16.702a4.007 4.007 0 0 1 1.517-5.143l34.552-21.23-35.952 18.763a4.007 4.007 0 0 1-5.192-1.337L52.479 43.508Z" fill="#00AAB0"/></svg>